<?xml version="1.0" encoding="UTF-8" standalone="no"?>
<svg
   xmlns:dc="http://purl.org/dc/elements/1.1/"
   xmlns:cc="http://creativecommons.org/ns#"
   xmlns:rdf="http://www.w3.org/1999/02/22-rdf-syntax-ns#"
   xmlns:svg="http://www.w3.org/2000/svg"
   xmlns="http://www.w3.org/2000/svg"
   xmlns:xlink="http://www.w3.org/1999/xlink"
   version="1.1"
   x="0px"
   y="0px"
   viewBox="0 0 381.25912 85.960517"
   xml:space="preserve"
   id="svg64"
   width="381.25912"
   height="85.960526"><metadata
     id="metadata70"><rdf:RDF><cc:Work
         rdf:about=""><dc:format>image/svg+xml</dc:format><dc:type
           rdf:resource="http://purl.org/dc/dcmitype/StillImage" /><dc:title></dc:title></cc:Work></rdf:RDF></metadata><defs
     id="defs68"><linearGradient
       id="linearGradient4721"><stop
         style="stop-color:#2a7fff;stop-opacity:1"
         offset="0"
         id="stop4717" /><stop
         style="stop-color:#d42aff;stop-opacity:1"
         offset="1"
         id="stop4719" /></linearGradient><linearGradient
       id="linearGradient4713"><stop
         style="stop-color:#aa0000;stop-opacity:1"
         offset="0"
         id="stop4709" /><stop
         style="stop-color:#ffdd55;stop-opacity:1"
         offset="1"
         id="stop4711" /></linearGradient><linearGradient
       xlink:href="#linearGradient4713"
       id="linearGradient4715"
       x1="-74.689911"
       y1="90.547836"
       x2="-74.689911"
       y2="15.54783"
       gradientUnits="userSpaceOnUse"
       gradientTransform="matrix(1.0458083,0,0,1.0458083,105.30235,-15.869067)" /><linearGradient
       xlink:href="#linearGradient4721"
       id="linearGradient4723"
       x1="10.903162"
       y1="49.906799"
       x2="86.223404"
       y2="49.906799"
       gradientUnits="userSpaceOnUse" /><linearGradient
       xlink:href="#linearGradient4721"
       id="linearGradient4727"
       gradientUnits="userSpaceOnUse"
       x1="10.903162"
       y1="49.906799"
       x2="86.223404"
       y2="49.906799" /></defs><g
     id="g58"
     transform="matrix(-1.4517024,0,0,1.4517024,397.08726,-29.469559)"
     style="fill:url(#linearGradient4723);fill-opacity:1"><path
       id="path56"
       d="M 86,36.1 C 84.6,34.7 84.6,34.3 84.5,33.9 83.4,26.1 76.6,20.3 68.7,20.3 c -4.1,0 -7.9,1.5 -10.9,4.3 l -2.2,2.2 c -0.9,0.9 -1,2.3 -0.2,3.3 9.4,12.4 9,30 -1.3,41.9 14.1,0.4 25.8,-11 25.8,-25 0,-2.3 -0.3,-4.6 -0.9,-6.8 -0.2,-0.6 0,-1.2 0.3,-1.7 0.4,-0.5 0.9,-0.8 1.6,-0.8 h 4.5 c 0.7,-0.2 1.1,-1.1 0.6,-1.6 z M 53.2,33.6 C 52.2,32.2 50.2,32 49,33.2 L 11.7,70.1 c -1.2,1.2 -1,3.2 0.3,4.1 6.2,4.4 14,6.2 21.9,4.9 3.6,-0.6 7,-1.9 10.1,-3.8 15.1,-9.1 18.2,-28.4 9.2,-41.7 z"
       style="fill:url(#linearGradient4727);fill-opacity:1" /></g><path
     id="path104"
     d="m 11.503887,27.059099 v 51.244612 c 0,0.28864 -0.234261,0.5229 -0.522904,0.5229 H 6.739185 c -0.26459,0 -0.487347,-0.19766 -0.518721,-0.46016 L 0.071115,27.121847 c -0.03765,-0.311651 0.206024,-0.585652 0.518721,-0.585652 h 10.391147 c 0.288643,0 0.522904,0.234261 0.522904,0.522904 z M 21.961971,78.303711 V 27.059099 c 0,-0.288643 0.234259,-0.522904 0.522899,-0.522904 h 9.41227 c 0.28865,0 0.52291,0.234261 0.52291,0.522904 v 51.244612 c 0,0.28864 -0.23426,0.5229 -0.52291,0.5229 h -9.41227 c -0.28864,0 -0.522899,-0.23426 -0.522899,-0.5229 z M 43.401046,26.536195 h 10.39115 c 0.31374,0 0.55637,0.274001 0.51872,0.585652 l -6.14936,51.244604 c -0.0314,0.2625 -0.25413,0.46016 -0.51872,0.46016 h -4.24179 c -0.28865,0 -0.52291,-0.23426 -0.52291,-0.5229 V 27.059099 c 0,-0.288643 0.23426,-0.522904 0.52291,-0.522904 z m 10.98098,-7.320659 v 3.137425 H 0 v -3.137425 c 0,-4.112118 3.413514,-7.571652 7.822642,-7.292421 0.330476,0.02092 0.592973,-0.241582 0.572057,-0.572057 -0.281322,-4.422724 3.193899,-7.822647 7.292422,-7.822647 1.527926,0 2.953362,0.474797 4.130943,1.279024 0.257269,0.175696 0.625393,0.07843 0.757165,-0.203933 1.16503,-2.490069 3.683341,-4.21251602 6.615791,-4.21251602 2.93243,0 5.45074,1.72244702 6.61577,4.21251602 0.13177,0.282368 0.4999,0.379629 0.75716,0.203933 1.177591,-0.804227 2.603021,-1.279024 4.130951,-1.279024 4.105845,0 7.573745,3.40829 7.292425,7.824738 -0.0209,0.32943 0.24054,0.590882 0.56996,0.569966 4.42377,-0.281323 7.82474,3.192853 7.82474,7.292421 z"
     style="fill:url(#linearGradient4715);fill-opacity:1;stroke-width:1.04580832" /><g
     transform="translate(-20,-20)"
     aria-label="BrowseBirb"
     style="font-style:normal;font-variant:normal;font-weight:normal;font-stretch:normal;font-size:40px;line-height:1.25;font-family:'Century Gothic';-inkscape-font-specification:'Century Gothic, Normal';font-variant-ligatures:normal;font-variant-caps:normal;font-variant-numeric:normal;font-feature-settings:normal;text-align:start;letter-spacing:0px;word-spacing:0px;writing-mode:lr-tb;text-anchor:start;fill:#000000;fill-opacity:1;stroke:none"
     id="text4753" /><g
     transform="translate(-20,-20)"
     aria-label="VOD Browser"
     style="font-style:normal;font-variant:normal;font-weight:bold;font-stretch:normal;font-size:21.03619003px;line-height:1.25;font-family:'Century Gothic';-inkscape-font-specification:'Century Gothic, Bold';font-variant-ligatures:normal;font-variant-caps:normal;font-variant-numeric:normal;font-feature-settings:normal;text-align:start;letter-spacing:0px;word-spacing:0px;writing-mode:lr-tb;text-anchor:start;fill:#000000;fill-opacity:1;stroke:none;stroke-width:0.52590901"
     id="text4757"><path
       id="path4804"
       style="font-style:normal;font-variant:normal;font-weight:bold;font-stretch:normal;font-size:21.03619003px;font-family:'Century Gothic';-inkscape-font-specification:'Century Gothic, Bold';font-variant-ligatures:normal;font-variant-caps:normal;font-variant-numeric:normal;font-feature-settings:normal;text-align:start;writing-mode:lr-tb;text-anchor:start;stroke-width:0.52590901"
       d="m 213.52323,87.271088 h 2.40355 v 1.407206 q 0.39032,-0.831998 1.03743,-1.263404 0.6471,-0.431406 1.41747,-0.431406 0.5444,0 1.14015,0.287604 l -0.87309,2.41382 q -0.49303,-0.246517 -0.81145,-0.246517 -0.64711,0 -1.09906,0.801183 -0.44168,0.801183 -0.44168,3.143102 l 0.0103,0.544394 v 4.519494 h -2.78359 z m -1.62291,6.399192 h -9.00818 q 0.19516,1.191503 1.03743,1.900242 0.85254,0.698467 2.16731,0.698467 1.57155,0 2.70142,-1.099058 l 2.36246,1.10933 q -0.88335,1.253132 -2.11594,1.859155 -1.23259,0.595752 -2.9274,0.595752 -2.62953,0 -4.28325,-1.653724 -1.65372,-1.663996 -1.65372,-4.159989 0,-2.557623 1.64345,-4.242161 1.65372,-1.69481 4.13944,-1.69481 2.6398,0 4.29352,1.69481 1.65373,1.684538 1.65373,4.457864 z m -2.81442,-2.208389 q -0.27733,-0.934713 -1.09905,-1.520193 -0.81146,-0.58548 -1.88997,-0.58548 -1.17096,0 -2.05432,0.657381 -0.55467,0.410863 -1.02716,1.448292 z m -10.78515,-2.629524 -1.73589,1.735897 q -1.05798,-1.047701 -1.92079,-1.047701 -0.47249,0 -0.73955,0.205432 -0.26706,0.19516 -0.26706,0.493035 0,0.225975 0.16434,0.421135 0.17462,0.184888 0.84227,0.513579 l 1.02716,0.513579 q 1.62291,0.801183 2.22893,1.633181 0.60602,0.831997 0.60602,1.951599 0,1.489379 -1.09905,2.485722 -1.08879,0.996343 -2.9274,0.996343 -2.44464,0 -3.9032,-1.910513 l 1.72562,-1.879699 q 0.49304,0.575208 1.15042,0.934713 0.66765,0.349234 1.18123,0.349234 0.55466,0 0.89363,-0.267061 0.33896,-0.267061 0.33896,-0.616295 0,-0.647109 -1.22232,-1.263404 l -0.94498,-0.472492 q -2.7117,-1.36612 -2.7117,-3.420435 0,-1.325034 1.01689,-2.259747 1.02715,-0.944985 2.61925,-0.944985 1.08878,0 2.04404,0.482764 0.96553,0.472492 1.63318,1.366119 z m -24.92912,-1.561279 h 2.74251 l 2.24948,6.358106 2.42409,-6.358106 h 1.67427 l 2.37273,6.286205 2.24948,-6.286205 h 2.76305 l -4.07782,11.175476 h -1.77698 l -2.383,-6.368378 -2.45491,6.368378 h -1.75644 z m -6.98467,-0.287604 q 1.58183,0 2.96849,0.790911 1.39693,0.790911 2.17757,2.14676 0.78064,1.355848 0.78064,2.927399 0,1.581823 -0.79091,2.958214 -0.78064,1.376392 -2.13649,2.157032 -1.35584,0.770368 -2.98902,0.770368 -2.40355,0 -4.10863,-1.705082 -1.69482,-1.715353 -1.69482,-4.159989 0,-2.619252 1.92079,-4.36542 1.68454,-1.520193 3.87238,-1.520193 z m 0.0411,2.639795 q -1.30449,0 -2.17757,0.91417 -0.86282,0.903899 -0.86282,2.321377 0,1.458564 0.85254,2.362462 0.86282,0.903899 2.17758,0.903899 1.31476,0 2.18785,-0.91417 0.87308,-0.91417 0.87308,-2.352191 0,-1.438021 -0.86281,-2.331648 -0.85254,-0.903899 -2.18785,-0.903899 z m -12.68541,-2.352191 h 2.40355 v 1.407206 q 0.39032,-0.831998 1.03743,-1.263404 0.64711,-0.431406 1.41747,-0.431406 0.5444,0 1.14015,0.287604 l -0.87308,2.41382 q -0.49304,-0.246517 -0.81146,-0.246517 -0.64711,0 -1.09906,0.801183 -0.44168,0.801183 -0.44168,3.143102 l 0.0103,0.544394 v 4.519494 h -2.7836 z m -11.23711,11.175476 v -15.10949 h 2.37274 q 2.06458,0 3.01984,0.267061 1.35585,0.359505 2.15703,1.335305 0.80119,0.9758 0.80119,2.300833 0,0.862813 -0.36978,1.571551 -0.35951,0.698468 -1.18123,1.314762 1.37639,0.64711 2.01323,1.622909 0.63683,0.965529 0.63683,2.290562 0,1.273676 -0.65738,2.321377 -0.65738,1.0477 -1.69481,1.571551 -1.03743,0.513579 -2.86577,0.513579 z m 2.87605,-12.366979 v 3.184189 h 0.62656 q 1.0477,0 1.55101,-0.441678 0.51358,-0.441678 0.51358,-1.201775 0,-0.708738 -0.48277,-1.119602 -0.48276,-0.421134 -1.46883,-0.421134 z m 0,5.752083 v 3.872385 h 0.71901 q 1.78725,0 2.40354,-0.45195 0.62657,-0.451949 0.62657,-1.314762 0,-0.975799 -0.72928,-1.540736 -0.72928,-0.564937 -2.42409,-0.564937 z m -23.4911,-8.494594 h 3.41016 q 3.29718,0 4.89955,0.821726 1.60236,0.811454 2.63979,2.650067 1.03743,1.838612 1.03743,4.293519 0,1.746168 -0.58548,3.215004 -0.57521,1.458564 -1.60236,2.424092 -1.01689,0.965528 -2.20839,1.335305 -1.19151,0.369777 -4.12918,0.369777 h -3.46152 z m 2.86577,2.773326 v 9.521752 h 1.33531 q 1.97214,0 2.85549,-0.45195 0.89363,-0.451949 1.45857,-1.520193 0.56494,-1.068244 0.56494,-2.629524 0,-2.403549 -1.34558,-3.728583 -1.21205,-1.191502 -3.89293,-1.191502 z m -13.40441,-3.153375 q 3.20473,0 5.50557,2.321377 2.3111,2.321376 2.3111,5.659639 0,3.307448 -2.28029,5.598009 -2.27002,2.290562 -5.51584,2.290562 -3.39989,0 -5.64936,-2.352191 -2.24948,-2.352191 -2.24948,-5.587738 0,-2.167303 1.0477,-3.985372 1.0477,-1.818069 2.87604,-2.876042 1.83862,-1.068244 3.95456,-1.068244 z m -0.0308,2.814412 q -2.09541,0 -3.52315,1.458564 -1.42775,1.458564 -1.42775,3.70804 0,2.506265 1.79752,3.964829 1.39694,1.140145 3.20473,1.140145 2.04405,0 3.48207,-1.479107 1.43802,-1.479108 1.43802,-3.64641 0,-2.157032 -1.44829,-3.64641 -1.44829,-1.499651 -3.52315,-1.499651 z M 88.312704,83.337074 h 2.958214 l 3.800484,10.733798 3.851841,-10.733798 h 2.958217 l -5.443939,15.10949 H 93.664195 Z M 267.02366,75.25441 V 45.801285 h 2.71484 v 11.855469 q 1.71875,-2.109375 3.84766,-3.144532 2.12891,-1.054687 4.66797,-1.054687 4.51172,0 7.69531,3.28125 3.20313,3.261719 3.20313,7.929687 0,4.609375 -3.22266,7.871094 -3.22266,3.261719 -7.75391,3.261719 -2.59765,0 -4.70703,-1.113281 -2.10937,-1.113282 -3.73047,-3.339844 v 3.90625 z m 10.9375,-2.089844 q 2.28516,0 4.21875,-1.113281 1.93359,-1.132813 3.06641,-3.164063 1.15234,-2.03125 1.15234,-4.296875 0,-2.265625 -1.15234,-4.316406 -1.15235,-2.050781 -3.10547,-3.183594 -1.9336,-1.152343 -4.14063,-1.152343 -2.24609,0 -4.27734,1.152343 -2.01172,1.132813 -3.10547,3.066407 -1.07422,1.933593 -1.07422,4.355468 0,3.691407 2.42188,6.171875 2.4414,2.480469 5.99609,2.480469 z M 253.78147,54.00441 h 2.79297 v 3.105469 q 1.25,-1.835938 2.63672,-2.734375 1.38672,-0.917969 2.89062,-0.917969 1.13282,0 2.42188,0.722656 l -1.42578,2.304688 q -0.85938,-0.371094 -1.44531,-0.371094 -1.36719,0 -2.63672,1.132812 -1.26953,1.113282 -1.9336,3.476563 -0.50781,1.816406 -0.50781,7.34375 v 7.1875 h -2.79297 z m -6.05469,-8.75 q 0.9375,0 1.60157,0.664062 0.66406,0.664063 0.66406,1.601563 0,0.917969 -0.66406,1.582031 -0.66407,0.664063 -1.60157,0.664063 -0.91796,0 -1.58203,-0.664063 -0.66406,-0.664062 -0.66406,-1.582031 0,-0.9375 0.66406,-1.601563 0.66407,-0.664062 1.58203,-0.664062 z m -1.36718,8.75 h 2.7539 v 21.25 h -2.7539 z m -22.03125,-7.480469 h 5.66406 q 3.41797,0 5.25391,0.820313 1.83593,0.800781 2.89062,2.480468 1.07422,1.679688 1.07422,3.730469 0,1.914063 -0.9375,3.496094 -0.9375,1.5625 -2.75391,2.539062 2.2461,0.761719 3.45703,1.796875 1.21094,1.015625 1.875,2.480469 0.6836,1.445313 0.6836,3.144531 0,3.457032 -2.53906,5.859375 -2.51954,2.382813 -6.77735,2.382813 h -7.89062 z m 2.8125,2.8125 v 9.199219 h 1.64062 q 2.98828,0 4.39453,-0.546875 1.40625,-0.566406 2.22657,-1.757813 0.82031,-1.210937 0.82031,-2.675781 0,-1.972656 -1.38672,-3.085937 -1.36719,-1.132813 -4.375,-1.132813 z m 0,12.089844 V 72.44191 h 3.55468 q 3.14454,0 4.60938,-0.605469 1.46484,-0.625 2.34375,-1.933594 0.89844,-1.308593 0.89844,-2.832031 0,-1.914062 -1.25,-3.339844 -1.25,-1.425781 -3.4375,-1.953125 -1.46485,-0.351562 -5.09766,-0.351562 z m -11.46485,6.777344 2.30469,1.210937 q -1.13281,2.226563 -2.61719,3.59375 -1.48437,1.367188 -3.33984,2.089844 -1.85547,0.703125 -4.19922,0.703125 -5.19531,0 -8.125,-3.398438 -2.92969,-3.417968 -2.92969,-7.714843 0,-4.042969 2.48047,-7.207032 3.14453,-4.023437 8.41797,-4.023437 5.42969,0 8.67188,4.121094 2.30468,2.910156 2.34375,7.265625 h -19.10157 q 0.0781,3.710937 2.36328,6.09375 2.28516,2.363281 5.64454,2.363281 1.62109,0 3.14453,-0.566406 1.54297,-0.566407 2.61718,-1.503907 1.07422,-0.9375 2.32422,-3.027343 z m 0,-5.722657 q -0.54687,-2.1875 -1.60156,-3.496093 -1.03516,-1.308594 -2.75391,-2.109375 -1.71875,-0.800782 -3.61328,-0.800782 -3.125,0 -5.37109,2.011719 -1.64063,1.464844 -2.48047,4.394531 z m -22.7539,-6.152343 -1.75782,1.816406 q -2.1875,-2.128906 -4.27734,-2.128906 -1.32812,0 -2.28516,0.878906 -0.9375,0.878906 -0.9375,2.050781 0,1.035156 0.78125,1.972656 0.78125,0.957032 3.28125,2.246094 3.04688,1.582031 4.14063,3.046875 1.07422,1.484375 1.07422,3.339844 0,2.617187 -1.83594,4.433594 -1.83594,1.816406 -4.58984,1.816406 -1.83594,0 -3.51563,-0.800781 -1.66015,-0.800782 -2.7539,-2.207032 l 1.71875,-1.953125 q 2.08984,2.363282 4.43359,2.363282 1.64062,0 2.79297,-1.054688 1.15234,-1.054687 1.15234,-2.480469 0,-1.171875 -0.76172,-2.089843 -0.76172,-0.898438 -3.4375,-2.265625 -2.87109,-1.484375 -3.90625,-2.929688 -1.03515,-1.445312 -1.03515,-3.300781 0,-2.421875 1.64062,-4.023438 1.66016,-1.601562 4.17969,-1.601562 2.92969,0 5.89844,2.871094 z M 146.08616,54.00441 h 2.8125 l 6.50391,15.429687 6.8164,-15.429687 h 0.48828 l 6.79688,15.429687 6.62109,-15.429687 h 2.85156 l -9.21875,21.25 h -0.52734 l -6.75781,-15.214844 -6.81641,15.214844 h -0.50781 z m -13.24219,-0.546875 q 4.90235,0 8.125,3.554687 2.92969,3.242188 2.92969,7.675782 0,4.453125 -3.10547,7.792968 -3.08594,3.320313 -7.94922,3.320313 -4.88281,0 -7.98828,-3.320313 -3.08594,-3.339843 -3.08594,-7.792968 0,-4.414063 2.92969,-7.65625 3.22266,-3.574219 8.14453,-3.574219 z m 0,2.675781 q -3.39844,0 -5.83984,2.519531 -2.44141,2.519532 -2.44141,6.09375 0,2.304688 1.11328,4.296875 1.11328,1.992188 3.00782,3.085938 1.89453,1.074219 4.16015,1.074219 2.26563,0 4.16016,-1.074219 1.89453,-1.09375 3.00781,-3.085938 1.11328,-1.992187 1.11328,-4.296875 0,-3.574218 -2.46094,-6.09375 -2.4414,-2.519531 -5.82031,-2.519531 z m -23.125,-2.128906 h 2.79297 v 3.105469 q 1.25,-1.835938 2.63672,-2.734375 1.38672,-0.917969 2.89062,-0.917969 1.13282,0 2.42188,0.722656 l -1.42578,2.304688 q -0.85938,-0.371094 -1.44531,-0.371094 -1.36719,0 -2.63672,1.132812 -1.26953,1.113282 -1.9336,3.476563 -0.50781,1.816406 -0.50781,7.34375 v 7.1875 h -2.79297 z M 88.312721,46.523941 h 5.664063 q 3.417969,0 5.253906,0.820313 1.83594,0.800781 2.89063,2.480468 1.07421,1.679688 1.07421,3.730469 0,1.914063 -0.9375,3.496094 -0.9375,1.5625 -2.753902,2.539062 2.246092,0.761719 3.457032,1.796875 1.21094,1.015625 1.875,2.480469 0.68359,1.445313 0.68359,3.144531 0,3.457032 -2.53906,5.859375 -2.51953,2.382813 -6.777344,2.382813 h -7.890625 z m 2.8125,2.8125 v 9.199219 h 1.640625 q 2.988282,0 4.394532,-0.546875 1.40625,-0.566406 2.226562,-1.757813 0.82031,-1.210937 0.82031,-2.675781 0,-1.972656 -1.386716,-3.085937 -1.367188,-1.132813 -4.375,-1.132813 z m 0,12.089844 V 72.44191 h 3.554688 q 3.144531,0 4.609375,-0.605469 1.464846,-0.625 2.343746,-1.933594 0.89844,-1.308593 0.89844,-2.832031 0,-1.914062 -1.25,-3.339844 -1.25,-1.425781 -3.437499,-1.953125 -1.464843,-0.351562 -5.097656,-0.351562 z" /></g></svg>